<?xml version="1.0" standalone="no"?>
<!DOCTYPE svg PUBLIC "-//W3C//DTD SVG 20010904//EN"
 "http://www.w3.org/TR/2001/REC-SVG-20010904/DTD/svg10.dtd">
<svg version="1.0" xmlns="http://www.w3.org/2000/svg"
 width="512.000000pt" height="512.000000pt" viewBox="0 0 512.000000 512.000000"
 preserveAspectRatio="xMidYMid meet">
<metadata>
Created by potrace 1.14, written by Peter Selinger 2001-2017
</metadata>
<g transform="translate(0.000000,512.000000) scale(0.100000,-0.100000)"
fill="#000000" stroke="none">
<path d="M2345 5113 c-89 -7 -310 -46 -417 -73 -760 -192 -1402 -738 -1716
-1460 -197 -455 -259 -961 -176 -1448 127 -747 593 -1416 1248 -1791 163 -94
295 -152 476 -211 293 -96 523 -130 845 -125 121 2 229 5 240 8 11 2 43 8 70
11 414 58 829 227 1165 476 508 377 858 924 986 1538 42 207 53 334 49 572 -4
222 -16 326 -59 519 -177 782 -716 1436 -1461 1773 -208 94 -546 184 -780 207
-85 8 -383 11 -470 4z"/>
</g>
</svg>
